<?xml version="1.0" encoding="UTF-8" standalone="no"?>
<!-- Creator: CorelDRAW 2021.5 (Оценочная версия) -->

<svg
   xml:space="preserve"
   width="60mm"
   height="60mm"
   version="1.1"
   style="clip-rule:evenodd;fill-rule:evenodd;image-rendering:optimizeQuality;shape-rendering:geometricPrecision;text-rendering:geometricPrecision"
   viewBox="0 0 6000 6000"
   id="svg126"
   sodipodi:docname="IGMU_logo.svg"
   inkscape:version="1.1.1 (eb90963e84, 2021-10-02)"
   xmlns:inkscape="http://www.inkscape.org/namespaces/inkscape"
   xmlns:sodipodi="http://sodipodi.sourceforge.net/DTD/sodipodi-0.dtd"
   xmlns="http://www.w3.org/2000/svg"
   xmlns:svg="http://www.w3.org/2000/svg"><sodipodi:namedview
   id="namedview128"
   pagecolor="#ffffff"
   bordercolor="#666666"
   borderopacity="1.0"
   inkscape:pageshadow="2"
   inkscape:pageopacity="0.0"
   inkscape:pagecheckerboard="0"
   inkscape:document-units="mm"
   showgrid="false"
   inkscape:zoom="0.97267947"
   inkscape:cx="355.71842"
   inkscape:cy="48.320132"
   inkscape:window-width="1920"
   inkscape:window-height="1043"
   inkscape:window-x="0"
   inkscape:window-y="0"
   inkscape:window-maximized="1"
   inkscape:current-layer="Слой_x0020_1" />
 <defs
   id="defs4">
  <style
   type="text/css"
   id="style2">
   <![CDATA[
    .str0 {stroke:#03619F;stroke-width:50;stroke-miterlimit:22.9256}
    .fil2 {fill:none;fill-rule:nonzero}
    .fil1 {fill:#03619F}
    .fil0 {fill:#03619F;fill-rule:nonzero}
   ]]>
  </style>
 </defs>
 <g
   id="Слой_x0020_1"
   inkscape:label="Слой 1"
   inkscape:groupmode="layer">
  <metadata
   id="CorelCorpID_0Corel-Layer" />
  <path
   class="fil0"
   d="m 3365.8468,961.61335 c -804.27,401.39015 -1298.4,935.58015 -1564.76,1507.62015 -324.22,696.68 -310.87,1449.76 -109.06,2089.31 l -26.71,8.16 c -203.3,-645.49 -215.9,-1405.98 110.55,-2108.6 269.32,-577.97 767.16,-1116.61 1577.37,-1520.98015 z"
   id="path7" />
  <path
   class="fil0"
   d="m 3668.5568,1052.8733 c -485.23,641.7702 -887.36,1336.9802 -1183.4,1956.5002 -366.51,765.68 -571.29,1416.37 -571.29,1710.17 h -27.45 c 0,-296.78 205.52,-951.91 573.52,-1722.04 297.52,-621.02 700.39,-1317.69 1187.1,-1960.9502 z"
   id="path9" />
  <path
   class="fil0"
   d="m 4279.9168,1409.0035 c 66.04,214.42 113.52,418.46 143.94,611.36 129.84,808.71 -31.9,1431.94 -350.94,1891.2 -319.77,459.27 -796.1,755.3 -1297.66,908.88 -132.06,40.81 -266.36,71.23 -399.9,92.75 l -3.72,-26.72 c 132.07,-21.51 264.88,-51.93 395.46,-91.99 496.36,-152.1 967.5,-444.43 1282.81,-898.5 316.08,-454.07 475.6,-1070.62 347.23,-1871.17 -30.42,-192.17 -77.89,-394.72 -143.19,-608.4 z"
   id="path11" />
  <path
   class="fil0"
   d="m 3912.6568,1155.9934 c -17.81,761.2401 -189.2,1492.7901 -496.35,2129.3801 -301.24,623.97 -731.56,1157.42 -1273.92,1540.26 l -15.58,-22.25 c 538.65,-380.62 966.01,-910.36 1265.01,-1529.88 304.93,-633.62 476.33,-1360.73 493.39,-2118.2501 z"
   id="path13" />
  <path
   class="fil0"
   d="m 3393.2968,946.03335 c 114.26,139.48005 241.87,232.22005 366.52,293.06015 171.39,83.1 336.84,105.36 452.59,105.36 v 27.44 c -118.71,0 -288.62,-22.99 -464.46,-108.32 -127.62,-62.3201 -258.94,-157.2901 -375.43,-300.48015 z"
   id="path15" />
  <path
   class="fil0"
   d="m 2698.8368,904.47335 4.46,8.17 c 145.42,252.26005 614.32,1063.95015 1992.1,1017.95015 l 0.75,27.44 c -1394.11,46 -1868.95,-776.0601 -2016.59,-1032.03015 l -4.46,-7.43 z"
   id="path17" />
  <path
   class="fil0"
   d="m 1755.0868,1278.4235 c 48.97,230 286.39,939.29 1100.31,1359.98 476.32,245.58 1150,392.48 2097.46,288.61 l 2.97,26.71 c -954.14,105.35 -1632.27,-43.03 -2112.31,-291.58 -825.04,-425.88 -1065.42,-1144.82 -1115.14,-1377.79 z"
   id="path19" />
  <path
   class="fil0"
   d="m 1135.5667,1959.5235 c 76.4201,188.45 327.9501,780.52 891.0701,1251.66 562.4,471.12 1436.4,821.33 2757.8,526.78 l 5.93,26.7 c -1331.77,296.78 -2213.2,-57.12 -2781.53,-532.72 -567.58,-475.58 -821.34,-1072.1 -898.4901,-1262.04 z"
   id="path21" />
  <path
   class="fil0"
   d="m 887.75668,2820.1735 c 59.35995,164.71 263.39002,714.49 764.20012,1159.66 500.07,445.16 1297.66,785.71 2544.12,531.97 l 5.94,26.71 c -1257.6,255.97 -2062.59,-88.3 -2568.61,-537.91 -505.2501,-449.62 -711.52012,-1004.59 -770.87012,-1171.53 z"
   id="path23" />
  <path
   class="fil1"
   d="m 2840.5568,1715.4235 h -1525.44 c -10.39,0 33.39,142.46 136.52,249.3 115,118.7 298.26,203.29 448.13,217.38 120.2,11.87 125.39,8.9 125.39,8.9 v 203.3 c -106.09,33.38 -365.78,94.97 -383.59,231.48 -19.28,150.61 319.79,245.58 382.11,278.23 51.2,27.45 -230.75,213.68 -258.94,230.75 h 483.01 l -33.4,195.86 89.04,-198.84 h 207 l -158.78,-118.7 c -3.71,-2.98 14.84,-54.91 -2.96,-97.95 -12.62,-31.15 -48.23,-49.7 -72.71,-56.38 l -107.59,-28.93 c -25.22,-6.68 -19.28,-2.97 -19.28,-29.69 l 0.73,-319.02 c 0,-4.46 318.3,-64.55 347.23,-71.23 132.81,-30.42 240.39,-64.55 342.78,-152.84 95.71,-81.62 157.29,-186.23 178.07,-313.85 16.32,-98.68 8.16,-217.38 -28.2,-308.65 -45.99,-114.25 -146.16,-224.06 -256.71,-299 -168.42,-113.51 -402.87,-149.8701 -635.1,-86.8 -92,24.48 -241.13,120.94 -288.62,212.94 -9.64,19.28 -24.48,35.6 -25.22,52.67 -0.74,56.39 74.94,40.07 115.74,27.45 31.91,-9.64 63.81,-28.19 90.51,-48.22 46.01,-34.13 20.78,-50.46 74.21,-84.58 86.8,-56.39 161.73,-82.36 308.65,-82.36 255.96,0 498.57,180.3 545.32,435.52 17.06,93.49 -1.49,177.32 -23,223.32 -28.94,60.1 -70.48,135.04 -164.72,192.17 -152.09,93.49 -404.35,166.2 -583.9,184.74 v -172.87 c 0,-5.19 301.23,0.74 520.1,-184.74 78.65,-66.78 125.39,-166.2 173.62,-289.36 z m -577.98,1259.07 c 0,0 7.42,-8.9 0,-21.51 -10.38,-18.55 -43.77,-28.94 -64.55,-36.35 -6.67,-2.23 -5.94,-2.98 0,2.22 8.91,8.9 28.19,25.97 37.1,33.38 12.62,10.39 27.45,22.26 27.45,22.26 z m -235.19,-479.29 v 294.55 c -58.62,-17.07 -238.91,-71.97 -271.55,-131.32 -27.46,-49.72 74.94,-93.49 108.32,-107.59 74.19,-30.42 163.23,-55.64 163.23,-55.64 z"
   id="path25" />
  <path
   class="fil1"
   d="m 4421.6268,2022.5835 c 0,0 -27.45,-7.41 -46.74,0 -18.54,7.42 -25.97,16.33 -40.07,19.29 -48.97,9.65 -58.61,15.59 -86.06,86.07 -12.61,34.13 -54.9,100.91 -65.29,131.33 -9.65,30.41 -37.84,89.77 -50.46,101.64 -13.35,11.13 -115.73,88.28 -142.44,103.87 -25.97,16.33 -129.1,152.09 -130.58,178.81 -3.72,68.25 -83.85,132.07 -126.14,181.03 -17.06,20.03 -79.39,115.75 -97.2,115.75 -17.05,0 -31.9,23.73 -60.84,34.12 -28.92,10.39 -34.86,43.77 -53.41,63.07 -18.55,19.29 -53.43,56.39 -108.32,75.67 -54.91,18.55 -206.26,153.59 -226.29,172.14 -20.78,19.28 -95.72,63.8 -106.11,83.1 -10.38,18.55 -63.8,28.93 -53.41,53.41 9.64,24.49 20.03,33.4 41.54,30.42 22.26,-2.96 100.17,-46 121.68,-62.32 54.16,-39.32 146.17,-53.41 193.65,-41.54 17.8,4.44 28.94,5.19 28.94,21.51 0,24.48 -27.46,66.03 -54.91,85.33 -26.71,19.28 -137.26,38.58 -176.58,51.18 -39.32,13.36 -113.51,21.53 -156.55,43.04 -42.29,21.51 -76.42,72.71 -111.29,94.22 -34.88,21.53 -155.81,74.94 -155.81,74.94 0,0 -71.97,54.16 -100.91,80.13 -28.93,25.97 -199.58,142.46 -226.28,177.32 -25.98,34.87 -199.58,130.59 -258.94,132.07 -60.1,0.75 -162.48,-13.35 -218.13,-19.29 -54.91,-5.93 -112.78,-13.36 -135.78,2.97 -23,16.32 -37.84,16.32 -52.67,16.32 -14.1,0 -11.14,-14.84 -43.04,-20.78 -31.9,-5.93 -52.68,-1.48 -48.22,20.78 4.45,21.51 91.26,126.13 129.09,153.58 37.84,27.45 101.64,80.88 200.32,92.75 98.69,11.12 253.75,20.03 324.97,0 70.49,-20.78 73.46,-31.91 95.72,-20.78 21.51,11.87 -10.39,32.65 21.51,32.65 31.9,0 34.88,-10.39 47.49,-35.61 13.35,-24.49 155.8,-185.49 186.22,-205.52 30.42,-20.04 176.59,-132.07 234.46,-143.94 57.87,-11.14 126.13,-12.62 174.36,-27.45 47.48,-14.11 69.74,-17.07 133.55,-38.58 63.8,-22.26 83.09,-25.23 109.8,-4.45 26.71,20.03 28.19,12.61 54.91,4.45 26.71,-8.91 149.87,-54.17 168.41,-80.14 18.55,-25.96 16.33,-47.48 16.33,-71.22 0,-23 66.04,-65.29 66.04,-65.29 0,0 42.29,-50.45 78.64,-47.48 36.36,2.96 72.71,-2.97 98.68,-17.82 25.97,-14.09 54.89,-21.51 59.35,-43.02 4.45,-22.26 13.36,-29.69 4.45,-42.29 -33.38,-46.75 -132.07,-28.94 -132.07,-66.78 0,-40.06 18.55,-70.48 36.36,-100.17 20.77,-34.86 42.3,-65.28 69,-70.48 11.87,-2.23 40.06,-6.67 46,1.49 15.59,18.54 30.42,40.06 15.59,54.9 -15.59,14.09 -30.42,32.64 -30.42,49.71 0,19.29 5.93,56.39 39.31,29.68 14.1,-11.13 8.17,-63.81 43.04,-89.77 34.87,-25.98 65.29,-94.24 92.74,-114.27 27.45,-20.76 43.77,-41.54 46.75,-63.8 1.48,-15.58 11.12,-30.42 8.16,-64.55 -0.75,-15.58 -10.39,-40.81 -14.1,-61.59 -13.36,-67.51 -5.2,-77.9 14.1,-105.34 149.13,-221.84 85.31,-203.3 85.31,-265.63 0,-45.25 38.59,-58.61 60.11,-101.64 21.51,-43.78 92.74,-123.16 103.13,-181.77 9.64,-57.88 6.67,-121.68 33.38,-144.68 25.97,-23 59.36,-83.84 59.36,-104.62 0,-20.77 8.17,-66.03 8.17,-84.58 0,-19.29 -6.69,-23.74 -20.05,-32.65 -12.6,-8.9 -21.51,-8.9 -21.51,-8.9 z"
   id="path27" />
  
  <path
   class="fil2 str0"
   d="m 2911.7768,886.67336 c 1133.69,0 2052.95,919.26014 2052.95,2053.70014 0,1134.43 -919.26,2053.69 -2052.95,2053.69 -1134.43,0 -2053.69012,-919.26 -2053.69012,-2053.69 0,-1134.44 919.26012,-2053.70014 2053.69012,-2053.70014 z"
   id="path31" />
  
  
  
  
  
  
  
  
  
  
  
  
  
  
  
  
  
  
  
  
  
  
  
  
  
  
  
  
  
  
  
  
  
  
  
  
  
  
  
  
  
  
  
  
  
  
 </g>
</svg>
